<svg xmlns="http://www.w3.org/2000/svg" viewBox="0 0 500 500"><g id="freepik--background-complete--inject-1"><rect y="382.4" width="500" height="0.25" style="fill:#ebebeb"></rect><rect x="416.78" y="398.49" width="33.12" height="0.25" style="fill:#ebebeb"></rect><rect x="322.53" y="401.21" width="8.69" height="0.25" style="fill:#ebebeb"></rect><rect x="396.59" y="389.21" width="19.19" height="0.25" style="fill:#ebebeb"></rect><rect x="52.46" y="390.89" width="43.19" height="0.25" style="fill:#ebebeb"></rect><rect x="104.56" y="390.89" width="6.33" height="0.25" style="fill:#ebebeb"></rect><rect x="131.47" y="395.11" width="93.68" height="0.25" style="fill:#ebebeb"></rect><path d="M237,337.8H43.91a5.71,5.71,0,0,1-5.7-5.71V60.66A5.71,5.71,0,0,1,43.91,55H237a5.71,5.71,0,0,1,5.71,5.71V332.09A5.71,5.71,0,0,1,237,337.8ZM43.91,55.2a5.46,5.46,0,0,0-5.45,5.46V332.09a5.46,5.46,0,0,0,5.45,5.46H237a5.47,5.47,0,0,0,5.46-5.46V60.66A5.47,5.47,0,0,0,237,55.2Z" style="fill:#ebebeb"></path><path d="M453.31,337.8H260.21a5.72,5.72,0,0,1-5.71-5.71V60.66A5.72,5.72,0,0,1,260.21,55h193.1A5.71,5.71,0,0,1,459,60.66V332.09A5.71,5.71,0,0,1,453.31,337.8ZM260.21,55.2a5.47,5.47,0,0,0-5.46,5.46V332.09a5.47,5.47,0,0,0,5.46,5.46h193.1a5.47,5.47,0,0,0,5.46-5.46V60.66a5.47,5.47,0,0,0-5.46-5.46Z" style="fill:#ebebeb"></path><path d="M334.09,380a2.75,2.75,0,0,0-2.74,2.75h27.56a2.75,2.75,0,0,0-2.75-2.75h-7.72V333h6V270h-6V251H167.64V270H163.5V333h4.14v47h-7.72a2.75,2.75,0,0,0-2.75,2.75h27.56A2.75,2.75,0,0,0,182,380h-7.73V333H341.82v47ZM174.26,270v-12.6H341.82V270Z" style="fill:#e0e0e0"></path><polygon points="427.51 166.65 382.78 166.65 382.78 227.61 402.76 227.61 402.76 382.75 407.52 382.75 407.52 227.61 427.51 227.61 427.51 166.65" style="fill:#f0f0f0"></polygon><polygon points="181.65 94.9 181.65 145.73 83.05 145.73 83.05 94.9 89.13 94.9 89.13 79.76 92.36 79.76 92.36 94.9 172.34 94.9 172.34 79.76 175.57 79.76 175.57 94.9 181.65 94.9" style="fill:#f0f0f0"></polygon><polygon points="330.18 94.9 330.18 145.73 231.58 145.73 231.58 94.9 237.66 94.9 237.66 79.76 240.89 79.76 240.89 94.9 320.86 94.9 320.86 79.76 324.1 79.76 324.1 94.9 330.18 94.9" style="fill:#f0f0f0"></polygon><path d="M248,380a2.75,2.75,0,0,0-2.75,2.75H272.8a2.75,2.75,0,0,0-2.74-2.75h-7.73V333h6V270h-6V251H81.53V270H77.39V333h4.14v47H73.81a2.74,2.74,0,0,0-2.74,2.75H98.63A2.75,2.75,0,0,0,95.88,380H88.16V333H255.71v47ZM88.16,270v-12.6H255.71V270Z" style="fill:#ebebeb"></path></g><g id="freepik--Shadow--inject-1"><ellipse id="freepik--path--inject-1" cx="250" cy="416.24" rx="193.89" ry="11.32" style="fill:#f5f5f5"></ellipse></g><g id="freepik--Plant--inject-1"><path d="M408.87,390.14s1.41-10.37,8.05-11.51,4.63-6.15,6.36-8.09,6.24,3.79,2.38,9.34-.71,3.8-2.38,9S408.26,398.74,408.87,390.14Z" style="fill:#263238"></path><path d="M409.14,397.29a.33.33,0,0,1-.17,0,.41.41,0,0,1-.2-.55c.05-.1,5-10.67,2.38-27.57a70.83,70.83,0,0,0-4-14.21c-3.15-8.58-5.87-16,.08-28.95,1.84-4,3.72-7.74,5.53-11.35,6.71-13.32,12-23.85,8.15-34.31a.41.41,0,1,1,.77-.28c4,10.79-1.38,21.46-8.18,35-1.81,3.6-3.69,7.32-5.53,11.32-5.8,12.64-3.26,19.56-.05,28.32A72.14,72.14,0,0,1,412,369c2.66,17.18-2.4,27.95-2.45,28.06A.41.41,0,0,1,409.14,397.29Z" style="fill:#263238"></path><path d="M413,394.81s4.29-6.47-1.9-9.79-7.43-.65-11.26-3-6.73-8.18-7.38-4.48,3.77,5.82,2.21,7.51S405.05,397.72,413,394.81Z" style="fill:#263238"></path><path d="M423.09,285.57s4.18-12.7-5.32-13S418.74,284.21,423.09,285.57Z" style="fill:#263238"></path><path d="M414.84,295.33s-2.83-11.55-9.58-9.11S408.11,295.54,414.84,295.33Z" style="fill:#263238"></path><path d="M426.28,296.33s-1-9.21,6.14-9.4S436.39,294.84,426.28,296.33Z" style="fill:#263238"></path><path d="M421.52,315.13s9.6-8.57,13.06-2.19S427.33,320.64,421.52,315.13Z" style="fill:#263238"></path><path d="M404.52,313.61s-1.8-14.22-9.56-9.76S397.77,315,404.52,313.61Z" style="fill:#263238"></path><path d="M397.7,334s5.72-14.37-4.92-12.75S390.19,330.48,397.7,334Z" style="fill:#263238"></path><path d="M414,339.09s9-10.58,15.85-7.23S431.14,345.75,414,339.09Z" style="fill:#263238"></path><path d="M405.87,362.55s-7.66-17-14.47-11.27S395.75,365.58,405.87,362.55Z" style="fill:#263238"></path><path d="M417,361.56s-2-13.19,5.56-12.13S428.15,358.56,417,361.56Z" style="fill:#263238"></path><g style="isolation:isolate;opacity:0.2"><path d="M423.09,285.57s4.18-12.7-5.32-13S418.74,284.21,423.09,285.57Z" style="fill:#fff"></path><path d="M414.84,295.33s-2.83-11.55-9.58-9.11S408.11,295.54,414.84,295.33Z" style="fill:#fff"></path><path d="M426.28,296.33s-1-9.21,6.14-9.4S436.39,294.84,426.28,296.33Z" style="fill:#fff"></path><path d="M421.52,315.13s9.6-8.57,13.06-2.19S427.33,320.64,421.52,315.13Z" style="fill:#fff"></path><path d="M404.52,313.61s-1.8-14.22-9.56-9.76S397.77,315,404.52,313.61Z" style="fill:#fff"></path><path d="M397.7,334s5.72-14.37-4.92-12.75S390.19,330.48,397.7,334Z" style="fill:#fff"></path><path d="M414,339.09s9-10.58,15.85-7.23S431.14,345.75,414,339.09Z" style="fill:#fff"></path><path d="M405.87,362.55s-7.66-17-14.47-11.27S395.75,365.58,405.87,362.55Z" style="fill:#fff"></path><path d="M417,361.56s-2-13.19,5.56-12.13S428.15,358.56,417,361.56Z" style="fill:#fff"></path></g><path d="M419,302.93l-.12,0a.4.4,0,0,1-.25-.21c0-.07-3.68-7.05-6.43-8.7a.42.42,0,1,1,.43-.71c2.59,1.56,5.71,7.13,6.53,8.65,5.26-3.1,9.14-8.8,9.18-8.86a.41.41,0,1,1,.68.46c-.17.25-4.21,6.19-9.82,9.33A.36.36,0,0,1,419,302.93Z" style="fill:#263238"></path><path d="M410.27,320.57h-.08a.4.4,0,0,1-.28-.19c0-.08-4.58-7.7-10.41-11.13a.41.41,0,0,1-.15-.56.42.42,0,0,1,.57-.15c5.31,3.13,9.44,9.39,10.47,11,8.19-6,18.41-5.69,18.51-5.7a.41.41,0,0,1,.4.43.41.41,0,0,1-.42.4c-.1,0-10.35-.25-18.36,5.8A.44.44,0,0,1,410.27,320.57Z" style="fill:#263238"></path><path d="M404.72,343.89a.43.43,0,0,1-.26-.09c-5.71-4.59-10.1-16-10.28-16.49A.41.41,0,0,1,395,327c0,.11,4.37,11.39,9.81,16,1.8-1,12.35-6.77,20.43-6.93h0a.41.41,0,0,1,.41.4.4.4,0,0,1-.4.42c-8.46.17-20.16,6.89-20.28,7A.39.39,0,0,1,404.72,343.89Z" style="fill:#263238"></path><path d="M411.49,368a.4.4,0,0,1-.33-.17,25.32,25.32,0,0,0-12.65-8.23.41.41,0,0,1,.23-.79A26.17,26.17,0,0,1,411.59,367c4.17-2.75,9.67-13.41,9.72-13.52a.42.42,0,0,1,.74.38c-.24.47-5.94,11.52-10.35,14A.42.42,0,0,1,411.49,368Z" style="fill:#263238"></path><path d="M412.32,393.26s3.67-5.85,7.83-6.68,5.94-5.62,7.47-2.74S424.93,396.25,412.32,393.26Z" style="fill:#263238"></path><polygon points="431.4 416.24 391.25 416.24 388.56 391.47 434.08 391.47 431.4 416.24" style="fill:#407BFF"></polygon><polygon points="435.02 396.16 387.62 396.16 387.02 390.92 435.63 390.92 435.02 396.16" style="fill:#407BFF"></polygon><polygon points="435.02 396.16 387.62 396.16 387.02 390.92 435.63 390.92 435.02 396.16" style="fill:#fff;opacity:0.30000000000000004"></polygon></g><g id="freepik--Mannequin--inject-1"><path d="M119.85,281.43a108.06,108.06,0,0,1,9,36.8,4.23,4.23,0,0,1-3.16,4.31,3.85,3.85,0,0,1-1.13.15H105.23v85.53h13a4,4,0,0,1,3.95,3.94H82.57a4,4,0,0,1,4-3.94h13V322.69H80.2a3.85,3.85,0,0,1-1.13-.15,4.22,4.22,0,0,1-3.15-4.31,108.08,108.08,0,0,1,9-36.8,38.46,38.46,0,0,0-1.25-33.18c-4.49-8.54-8.67-17.4-7.74-19.27,1.89-3.8,3.78-5.64,13.22-6.74,6.17-.73,7.36-4.34,7.44-6.73a4.09,4.09,0,0,0-1.35-3.16c-8.67-7.89-9.14-26,5.49-28.29v-.25c.49,0,1,0,1.41.05h.47c.47,0,.94-.05,1.42-.05v.25c14.64,2.33,14.16,20.4,5.5,28.29a4.13,4.13,0,0,0-1.35,3.16c.08,2.39,1.27,6,7.44,6.73,9.45,1.1,11.33,2.94,13.22,6.74.93,1.87-3.24,10.73-7.73,19.27A38.46,38.46,0,0,0,119.85,281.43Z" style="fill:#263238"></path><path d="M119.85,281.43a108.06,108.06,0,0,1,9,36.8,4.23,4.23,0,0,1-3.16,4.31,3.85,3.85,0,0,1-1.13.15H105.23v85.53h13a4,4,0,0,1,3.95,3.94H82.57a4,4,0,0,1,4-3.94h13V322.69H80.2a3.85,3.85,0,0,1-1.13-.15,4.22,4.22,0,0,1-3.15-4.31,108.08,108.08,0,0,1,9-36.8,38.46,38.46,0,0,0-1.25-33.18c-4.49-8.54-8.67-17.4-7.74-19.27,1.89-3.8,3.78-5.64,13.22-6.74,6.17-.73,7.36-4.34,7.44-6.73a4.09,4.09,0,0,0-1.35-3.16c-8.67-7.89-9.14-26,5.49-28.29v-.25c.49,0,1,0,1.41.05h.47c.47,0,.94-.05,1.42-.05v.25c14.64,2.33,14.16,20.4,5.5,28.29a4.13,4.13,0,0,0-1.35,3.16c.08,2.39,1.27,6,7.44,6.73,9.45,1.1,11.33,2.94,13.22,6.74.93,1.87-3.24,10.73-7.73,19.27A38.46,38.46,0,0,0,119.85,281.43Z" style="fill:#fff;opacity:0.4"></path><path d="M119.85,281.43a108.06,108.06,0,0,1,9,36.8,4.23,4.23,0,0,1-3.16,4.31H79.07a4.22,4.22,0,0,1-3.15-4.31,108.08,108.08,0,0,1,9-36.8,38.46,38.46,0,0,0-1.25-33.18c-4.49-8.54-8.67-17.4-7.74-19.27,1.89-3.8,3.78-5.64,13.22-6.74,6.17-.73,7.36-4.34,7.44-6.73a4.09,4.09,0,0,0-1.35-3.16c-8.67-7.89-9.14-26,5.49-28.29v-.25c.49,0,1,0,1.41.05h.47c.47,0,.94-.05,1.42-.05v.25c14.64,2.33,14.16,20.4,5.5,28.29a4.13,4.13,0,0,0-1.35,3.16c.08,2.39,1.27,6,7.44,6.73,9.45,1.1,11.33,2.94,13.22,6.74.93,1.87-3.24,10.73-7.73,19.27A38.46,38.46,0,0,0,119.85,281.43Z" style="fill:#407BFF"></path><path d="M119.85,281.43a108.06,108.06,0,0,1,9,36.8,4.23,4.23,0,0,1-3.16,4.31H79.07a4.22,4.22,0,0,1-3.15-4.31,108.08,108.08,0,0,1,9-36.8,38.46,38.46,0,0,0-1.25-33.18c-4.49-8.54-8.67-17.4-7.74-19.27,1.89-3.8,3.78-5.64,13.22-6.74,6.17-.73,7.36-4.34,7.44-6.73a4.09,4.09,0,0,0-1.35-3.16c-8.67-7.89-9.14-26,5.49-28.29v-.25c.49,0,1,0,1.41.05h.47c.47,0,.94-.05,1.42-.05v.25c14.64,2.33,14.16,20.4,5.5,28.29a4.13,4.13,0,0,0-1.35,3.16c.08,2.39,1.27,6,7.44,6.73,9.45,1.1,11.33,2.94,13.22,6.74.93,1.87-3.24,10.73-7.73,19.27A38.46,38.46,0,0,0,119.85,281.43Z" style="fill:#fff;opacity:0.7000000000000001"></path></g><g id="freepik--speech-bubble--inject-1"><path d="M328.92,66.92H284.2a15.37,15.37,0,0,0-15.37,15.37v43.46a15.37,15.37,0,0,0,15.37,15.37h3.08l.28,11.41,10.06-11.41h31.3a15.37,15.37,0,0,0,15.37-15.37V82.29A15.37,15.37,0,0,0,328.92,66.92Z" style="fill:#407BFF"></path><polygon points="322.87 124.85 290.25 124.85 292.67 95.56 291.46 89.74 321.66 89.74 320.45 95.56 322.87 124.85" style="fill:#fff;opacity:0.7000000000000001"></polygon><path d="M315.51,91.67c-.26-6-4.17-10.73-8.95-10.73s-8.7,4.76-8.95,10.73a.74.74,0,0,0-.33.6.76.76,0,0,0,1.52,0,.74.74,0,0,0-.29-.57c.24-5.49,3.75-9.86,8.05-9.86s7.81,4.37,8,9.86a.77.77,0,0,0-.28.57.76.76,0,0,0,1.52,0A.74.74,0,0,0,315.51,91.67Z" style="fill:#fff"></path><path d="M333.87,107.3a8.22,8.22,0,1,1-8.22-8.22A8.22,8.22,0,0,1,333.87,107.3Z" style="fill:#263238"></path><path d="M324.78,110.55a.51.51,0,0,1-.36-.15l-3.8-3.8a.5.5,0,0,1,0-.7.5.5,0,0,1,.71,0l3.45,3.44,5.19-5.15a.5.5,0,0,1,.7,0,.5.5,0,0,1,0,.71l-5.54,5.5A.5.5,0,0,1,324.78,110.55Z" style="fill:#fff"></path></g><g id="freepik--Character--inject-1"><polygon points="283.18 175.22 279.05 191.13 286.44 192.01 288.21 177.49 283.18 175.22" style="fill:#e4897b"></polygon><path d="M226.51,406.48l1.18,1,1.57-1.17,2.4,5.08,9.9,8.41s2.92-.24-.72-5.51a4.25,4.25,0,0,1-.45-.82c-1.51-3.32-1.71-10.34-1.71-10.34l-5.43-4.62a8.54,8.54,0,0,0-1.11.41C230.53,399.61,227.37,401.25,226.51,406.48Z" style="fill:#407BFF"></path><path d="M226.51,406.48l1.18,1,1.57-1.17,2.4,5.08,9.9,8.41s2.92-.24-.72-5.51a4.25,4.25,0,0,1-.45-.82c-1.51-3.32-1.71-10.34-1.71-10.34l-5.43-4.62a8.54,8.54,0,0,0-1.11.41C230.53,399.61,227.37,401.25,226.51,406.48Z" style="opacity:0.2"></path><path d="M232.14,398.92h0c1.4-.19,1.68,6.1,3.06,9.33,1.23,2.87,3.23,5.38,5.21,5.21-1.51-3.32-1.09-11.83-1.09-11.83l-4.37-3.71S232.83,398.62,232.14,398.92Z" style="fill:#e4897b"></path><path d="M232.14,398.92h0c1.4-.19,1.68,6.1,3.06,9.33,1.23,2.87,3.23,5.38,5.21,5.21-1.51-3.32-1.09-11.83-1.09-11.83l-4.37-3.71S232.83,398.62,232.14,398.92Z" style="opacity:0.2"></path><path d="M226.22,421.71h1.55l.43-1.91,5.13,2.31h13s2.06-2.08-4.12-3.73a4.19,4.19,0,0,1-.88-.34c-3.3-1.54-8-6.77-8-6.77H226.2a9.59,9.59,0,0,0-.59,1C224.83,413.87,223.49,417.16,226.22,421.71Z" style="fill:#407BFF"></path><path d="M225.61,412.3v0c.94-1.05,5.23,3.56,8.36,5.13,2.81,1.4,5.95,2,7.35.59-3.3-1.54-8.49-8.3-8.49-8.3H227.1S226,411.63,225.61,412.3Z" style="fill:#e4897b"></path><path d="M286.63,179l10.79-2.52-5.36-7.25s-9.9,2.09-8.88,6Z" style="fill:#e4897b"></path><path d="M288.75,179.63s-.41,36.46-8.51,36.46c-4.49,0-9.58-2.92-13.91-6.23a77.11,77.11,0,0,1-10.08-9.4l0-.12-2.79-16.93c8-.2,21.88,18.06,21.88,18.06L282,178.34Z" style="fill:#407BFF"></path><path d="M266.33,209.86a77.11,77.11,0,0,1-10.08-9.4l0-.12,2.6-5.81A23.25,23.25,0,0,1,266.33,209.86Z" style="opacity:0.2"></path><path d="M220.72,143s2.53-4.38,9.78-5.12,16.86,3.12,18.33,14.19,4.61,17.14,4.61,17.14-23.35,6.1-29.91,3.9S206.82,146.15,220.72,143Z" style="fill:#263238"></path><path d="M269.14,336.89c-3.27,6.52-6.56,13.54-9.72,20.55-4.15,9.26-8.05,18.53-11.37,26.83-2.37,5.92-5.46,13.39-7.08,17.91a16.34,16.34,0,0,1-9.48-4c1.22-8.13,4.47-29.25,10.61-47.83,3.22-9.78,7.25-19.43,12.21-27.28-23.19-59.79-18.7-82.62-18.7-82.62l24.6-1.89S264.64,261,268.36,284h0c1.94,12.06,3.68,24.28,4.48,33.53v.09A36.12,36.12,0,0,1,269.14,336.89Z" style="fill:#263238"></path><path d="M247.81,305.25c-3.44-10.18-6-19-7.8-26.59,1.38-6,3.46-11.2,6.4-14.37C246.41,264.29,251.31,280.78,247.81,305.25Z" style="opacity:0.2"></path><path d="M248.05,384.27c-2.37,5.92-5.46,13.39-7.08,17.91a16.34,16.34,0,0,1-9.48-4c1.22-8.13,4.47-29.25,10.61-47.83C244.21,360.28,246.63,372.87,248.05,384.27Z" style="opacity:0.2"></path><path d="M250.29,236.14s-7.17,55.51-11.28,82.22c-4.32,28.05-4.87,73.07-3.79,91.41-1.57.91-7.3,2-10.39,1.05,0,0-14.63-56.74-4.92-89.69-8.84-64.91,4-80.81,4-80.81Z" style="fill:#263238"></path><path d="M247.9,201.19a116.44,116.44,0,0,0-23.8-16.59c.78-.09,1.59-.17,2.39-.24a114.43,114.43,0,0,1,16.43-.55c1.36.08,2.76.19,4.13.3h0C250.45,191.91,247.9,201.19,247.9,201.19Z" style="fill:#fff;opacity:0.7000000000000001"></path><path d="M224.1,236.14,260,233.72s1.07,10.77.82,10.62-38.39,1.34-38.39,1.34Z" style="fill:#263238"></path><polygon points="224.43 236.73 259.92 234.77 259.92 238.14 224.1 240.04 224.43 236.73"></polygon><path d="M244.4,239.56a1,1,0,0,1-1-.94l-.16-2a1,1,0,0,1,.94-1.09l3.89-.31a1,1,0,0,1,.77.27,1,1,0,0,1,.33.75v2.08a1,1,0,0,1-1,1l-3.73.2Zm3.74-3.63h0l-3.89.3a.34.34,0,0,0-.31.37l.15,2a.36.36,0,0,0,.36.32l3.73-.2a.34.34,0,0,0,.33-.34v-2.08a.33.33,0,0,0-.11-.25A.33.33,0,0,0,248.14,235.93Z" style="fill:#fff"></path><path d="M224.1,236.14c-.75-8.42-3.76-23.85-8.95-40.06-1.69-5.27,1.17-11.22,1.17-11.22s7.07-.18,7.78-.26,1.59-.17,2.39-.24a114.43,114.43,0,0,1,16.43-.55c1.36.08,2.76.19,4.13.3.44,0,5.41.09,5.84.14,0,0,6.88,7.86,7.3,14.23a114.23,114.23,0,0,1,.56,14.76c0,5.78-.84,21.53-.84,21.53-1.1,6.09-13.51.52-13.51.52C228.49,244.16,224.1,236.14,224.1,236.14Z" style="fill:#407BFF"></path><path d="M224.1,236.14c-.75-8.42-3.76-23.85-8.95-40.06-1.69-5.27,1.17-11.22,1.17-11.22s7.07-.18,7.78-.26,1.59-.17,2.39-.24a114.43,114.43,0,0,1,16.43-.55c1.36.08,2.76.19,4.13.3.44,0,5.41.09,5.84.14,0,0,6.88,7.86,7.3,14.23a114.23,114.23,0,0,1,.56,14.76c0,5.78-.84,21.53-.84,21.53-1.1,6.09-13.51.52-13.51.52C228.49,244.16,224.1,236.14,224.1,236.14Z" style="fill:#fff;opacity:0.8"></path><path d="M244.18,199.75a.56.56,0,1,1-.56-.56A.56.56,0,0,1,244.18,199.75Z" style="opacity:0.2"></path><path d="M246.22,211.58a.56.56,0,1,1-.56-.56A.56.56,0,0,1,246.22,211.58Z" style="opacity:0.2"></path><circle cx="246.22" cy="222.86" r="0.56" style="opacity:0.2"></circle><circle cx="246.78" cy="233.72" r="0.56" style="opacity:0.2"></circle><path d="M227,260.78l-12.4-2.24,7.22-26.67S220,225.25,218,217.66c-1-3.7-2-7.62-2.89-11.11A91.62,91.62,0,0,1,212.77,196c-.23-4.25,3.56-11.13,3.56-11.13l5.51-.9s11.6,8.46,12.13,25.72S227,260.78,227,260.78Z" style="fill:#407BFF"></path><path d="M249.84,183.41S253.49,197,255.28,207,262,259.58,262,259.58l2.69-1.34L261,232.83s1.35-29.45.3-35.5-7.82-13.92-7.82-13.92Z" style="fill:#407BFF"></path><path d="M245.05,186.13c1.73,6.31-2,11.9-2,11.9-11.07-3.5-15.65-13.7-15.65-13.7,3.31-3.64,1.22-13.27-.39-18.51l4.43,3.32,6.6,4.93a12,12,0,0,0,.32,4.05c.5,2.1,1.39,4.07,2.38,4.49Z" style="fill:#e4897b"></path><path d="M238.36,178.12c-2.63-.59-6.08-3.31-6.63-6a13,13,0,0,1-.29-3l6.6,4.93A12,12,0,0,0,238.36,178.12Z" style="opacity:0.2"></path><path d="M222.14,155.36c1.89,8.48,2.51,12.11,7.53,16,7.54,5.91,17.49,2.31,18.16-6.43.6-7.86-2.6-20.41-11.5-22.93A11.13,11.13,0,0,0,222.14,155.36Z" style="fill:#e4897b"></path><path d="M233.09,156.41c.13.72.61,1.26,1.07,1.21s.73-.67.6-1.39-.61-1.26-1.07-1.21S233,155.69,233.09,156.41Z" style="fill:#263238"></path><path d="M242,155.16c.13.72.61,1.26,1.07,1.22s.73-.68.61-1.4-.61-1.26-1.07-1.21S241.92,154.44,242,155.16Z" style="fill:#263238"></path><path d="M242.45,153.83l1.61-.68S243.43,154.6,242.45,153.83Z" style="fill:#263238"></path><path d="M239.58,157a21.29,21.29,0,0,0,3.34,4.32,2.92,2.92,0,0,1-2.43.75Z" style="fill:#de5753"></path><path d="M231,152.05a.37.37,0,0,0,.29-.14,3.11,3.11,0,0,1,2.73-1.15.4.4,0,0,0,.46-.35.47.47,0,0,0-.39-.49,3.91,3.91,0,0,0-3.46,1.42.44.44,0,0,0,.07.6A.5.5,0,0,0,231,152.05Z" style="fill:#263238"></path><path d="M244.88,150a.41.41,0,0,0,.3-.08.42.42,0,0,0,0-.6,4.44,4.44,0,0,0-3.55-1.73.39.39,0,0,0-.36.45.46.46,0,0,0,.48.39,3.61,3.61,0,0,1,2.8,1.41A.43.43,0,0,0,244.88,150Z" style="fill:#263238"></path><path d="M233.5,155.08l1.6-.68S234.47,155.84,233.5,155.08Z" style="fill:#263238"></path><path d="M226.49,160.27s4.17-6.07,1-15.06c0,0,9.43-4.58,16.58,2.4,0,0-6.65-11.65-20.53-6.07s-3.41,18.91-1.69,20S226.49,160.27,226.49,160.27Z" style="fill:#263238"></path><path d="M220.44,162.69a7,7,0,0,0,4.6,2.71c2.34.28,3-2.09,2-4.27-1-2-3.35-4.46-5.5-3.73S219,160.83,220.44,162.69Z" style="fill:#e4897b"></path><path d="M241,164.08a24.61,24.61,0,0,0-1.13,3.36c-.21,0-.42,0-.62-.06-2.82-.28-4-1.35-4.52-2.44a3.72,3.72,0,0,1-.28-1.7,3.59,3.59,0,0,1,.18-1c1.41,1.05,4,1.52,5.41,1.71C240.61,164.06,241,164.08,241,164.08Z" style="fill:#263238"></path><path d="M240,164l-.36,1c-2.65-.28-4.48-.83-5.23-1.71a3.59,3.59,0,0,1,.18-1C236,163.31,238.62,163.78,240,164Z" style="fill:#fff"></path><path d="M239.23,167.38c-2.82-.28-4-1.35-4.52-2.44a9.07,9.07,0,0,1,3.06.94A3.42,3.42,0,0,1,239.23,167.38Z" style="fill:#de5753"></path><path d="M219.59,215.6a4.16,4.16,0,0,1-1.64,2.06c-1-3.7-2-7.62-2.89-11.11,2.29-2.77,4.22-5.08,4.22-5.08S221.92,209.67,219.59,215.6Z" style="opacity:0.2"></path><path d="M216.32,184.86c-4.9.59-19.92,37.9-19,43.79s33.21,3.22,33.21,3.22v-9l-18.86-3.8,6.53-12.8a32.63,32.63,0,0,0,1.42-11.5A25.91,25.91,0,0,0,216.32,184.86Z" style="fill:#407BFF"></path><path d="M211.53,245.67a.32.32,0,0,1-.16,0,.35.35,0,0,1-.14-.47c.09-.18,9.43-18.1,5.89-23.74a3.85,3.85,0,0,0-3.73-1.63c-12.89.45-19,19.14-19.06,19.33a.35.35,0,0,1-.66-.21c.06-.2,6.31-19.35,19.69-19.82a4.53,4.53,0,0,1,4.34,2c3.76,6-5.46,23.68-5.86,24.43A.34.34,0,0,1,211.53,245.67Z" style="fill:#407BFF"></path><g style="opacity:0.6000000000000001"><path d="M211.53,245.67a.32.32,0,0,1-.16,0,.35.35,0,0,1-.14-.47c.09-.18,9.43-18.1,5.89-23.74a3.85,3.85,0,0,0-3.73-1.63c-12.89.45-19,19.14-19.06,19.33a.35.35,0,0,1-.66-.21c.06-.2,6.31-19.35,19.69-19.82a4.53,4.53,0,0,1,4.34,2c3.76,6-5.46,23.68-5.86,24.43A.34.34,0,0,1,211.53,245.67Z" style="fill:#fff"></path></g><polygon points="188.69 234.95 168.45 277.25 171.57 289.97 207.07 302.1 223.9 251.27 219.25 246.54 218.81 243.77 188.69 234.95" style="fill:#263238"></polygon><polygon points="188.69 234.95 168.45 277.25 171.57 289.97 207.07 302.1 223.9 251.27 193.68 244.05 193.97 240.41 188.69 234.95" style="fill:#fff;opacity:0.2"></polygon><polygon points="193.68 244.04 193.97 240.41 188.7 234.95 218.8 243.77 219.25 246.54 223.9 251.27 193.68 244.04" style="fill:#fff;opacity:0.1"></polygon><polygon points="193.68 244.05 171.57 289.97 207.07 302.1 223.9 251.27 193.68 244.05" style="fill:#fff;opacity:0.2"></polygon><polygon points="193.97 240.41 173.66 278 168.45 277.25 171.57 289.97 174.23 278.73 193.97 240.41" style="fill:#fff;opacity:0.1"></polygon><path d="M214,218.94a5.73,5.73,0,0,0-5.5.11c-7.5,4.26-10.06,25.14-10.36,27.82a.71.71,0,0,0,.28,1.37.71.71,0,0,0,.71-.71.72.72,0,0,0-.3-.57c.28-2.46,2.89-23.26,10-27.3a5,5,0,0,1,4.87-.09c10.56,4.9,3.11,28.08,1.76,32a.71.71,0,1,0,.76.7.65.65,0,0,0-.13-.38C217.5,248,225.33,224.19,214,218.94Z" style="fill:#407BFF"></path><path d="M214,218.94a5.73,5.73,0,0,0-5.5.11c-7.5,4.26-10.06,25.14-10.36,27.82a.71.71,0,0,0,.28,1.37.71.71,0,0,0,.71-.71.72.72,0,0,0-.3-.57c.28-2.46,2.89-23.26,10-27.3a5,5,0,0,1,4.87-.09c10.56,4.9,3.11,28.08,1.76,32a.71.71,0,1,0,.76.7.65.65,0,0,0-.13-.38C217.5,248,225.33,224.19,214,218.94Z" style="fill:#fff;opacity:0.7000000000000001"></path><path d="M221.4,244.39h-.05a.34.34,0,0,1-.29-.38c0-.19,2.53-19.53-2.8-23.92a4.19,4.19,0,0,0-4.27-.51c-12.19,4.15-10.88,23.29-10.87,23.48a.32.32,0,0,1-.31.36.34.34,0,0,1-.36-.31c0-.2-1.37-19.85,11.32-24.17a4.87,4.87,0,0,1,4.92.63c5.62,4.62,3.15,23.72,3,24.53A.33.33,0,0,1,221.4,244.39Z" style="fill:#263238"></path><polygon points="196.53 240.73 183.27 293.29 189.94 304.56 227.43 305.9 234.95 246.18 229.13 242.99 227.91 240.47 196.53 240.73" style="fill:#407BFF"></polygon><polygon points="196.53 240.73 183.27 293.29 189.94 304.56 227.43 305.9 234.95 246.18 203.94 248 203.16 244.43 196.53 240.73" style="fill:#fff;opacity:0.5"></polygon><polygon points="203.93 248 203.16 244.43 196.53 240.73 227.9 240.46 229.13 242.99 234.95 246.18 203.93 248" style="fill:#fff;opacity:0.30000000000000004"></polygon><polygon points="203.94 248 189.94 304.56 227.43 305.9 234.95 246.18 203.94 248" style="fill:#fff;opacity:0.2"></polygon><path d="M209.43,249.94a.33.33,0,0,1-.33-.27c-.18-.92-4.25-22.52,1.87-28.95A5.84,5.84,0,0,1,216.3,219c13.16,1.87,11.43,29.39,11.35,30.56a.33.33,0,0,1-.36.31.32.32,0,0,1-.31-.36c0-.28,1.77-28.06-10.78-29.84a5.14,5.14,0,0,0-4.74,1.51c-5.89,6.19-1.74,28.14-1.7,28.36a.35.35,0,0,1-.27.4Z" style="fill:#263238"></path><polygon points="203.16 244.43 188.48 292.49 183.27 293.29 189.94 304.56 189.24 293.03 203.16 244.43" style="fill:#fff;opacity:0.1"></polygon><path d="M210.17,249.75a.7.7,0,0,1-.47.88.71.71,0,1,1,.47-.88Z" style="fill:#263238"></path><path d="M227.92,249.35a.71.71,0,1,1-.88-.47A.7.7,0,0,1,227.92,249.35Z" style="fill:#263238"></path><path d="M280.48,196.31a.33.33,0,0,1-.33-.29c0-.2-2.91-20.45,8.93-26.68a4.55,4.55,0,0,1,4.74-.12c6,3.77,5.56,24,5.53,24.83a.34.34,0,0,1-.34.33.33.33,0,0,1-.33-.35c0-.2.5-20.67-5.22-24.23a3.85,3.85,0,0,0-4.06.14c-11.42,6-8.61,25.78-8.58,26a.33.33,0,0,1-.29.38Z" style="fill:#263238"></path><polygon points="273.94 194.61 268.99 248.59 277.32 258.69 314.57 254.21 312.74 194.04 306.5 191.79 304.89 189.49 273.94 194.61" style="fill:#263238"></polygon><polygon points="273.94 194.61 268.99 248.59 277.32 258.69 314.57 254.21 312.74 194.04 282.38 200.65 281.06 197.24 273.94 194.61" style="fill:#fff;opacity:0.5"></polygon><polygon points="282.38 200.65 281.06 197.24 273.94 194.61 304.89 189.49 306.5 191.79 312.74 194.04 282.38 200.65" style="fill:#fff;opacity:0.30000000000000004"></polygon><polygon points="282.38 200.65 277.32 258.69 314.57 254.21 312.74 194.04 282.38 200.65" style="fill:#fff;opacity:0.2"></polygon><path d="M288.06,201.72a.33.33,0,0,1-.32-.22c-.3-.81-7.16-20-2.3-28.49a7.43,7.43,0,0,1,5.32-3.76,7.27,7.27,0,0,1,6,1.51c7.81,6.09,9.21,26.88,9.26,27.76a.35.35,0,0,1-.31.36.34.34,0,0,1-.36-.32c0-.21-1.43-21.37-9-27.27a6.67,6.67,0,0,0-5.5-1.38,6.78,6.78,0,0,0-4.85,3.43c-4.71,8.22,2.27,27.73,2.34,27.93a.33.33,0,0,1-.2.43Z" style="fill:#263238"></path><polygon points="281.06 197.24 274.01 247 268.99 248.59 277.32 258.69 274.84 247.41 281.06 197.24" style="fill:#fff;opacity:0.1"></polygon><path d="M288.81,201.41a.7.7,0,1,1-.94-.33A.7.7,0,0,1,288.81,201.41Z" style="fill:#263238"></path><path d="M306.29,198.26a.71.71,0,1,1-1-.33A.71.71,0,0,1,306.29,198.26Z" style="fill:#263238"></path><path d="M247,217l.21-1.73.15-.16c.78-1,.63-2.73.42-4.08s-.92-3.17-2.2-3.66h0a1.66,1.66,0,0,0,.13-1.18,1.59,1.59,0,0,0-.42-.69c.93-1,.89-2.84.57-4.17s-.86-3-2-3.61a1.89,1.89,0,0,0-.21-.09l-.85-1.5-1.08.22-.08,1.25c-1.9.59-3.82,2.09-3.33,4.51a.36.36,0,0,0,0,.1c.53,2.35,3.14,3.61,5.52,3.81a1.42,1.42,0,0,0,.87-.08.88.88,0,0,1,.29.45,1.09,1.09,0,0,1-.15.81,1.92,1.92,0,0,0-.74.28c-2.1,1.1-4,3.26-3.6,5.64,0,0,0,.07,0,.1.49,2.42,2.75,3.07,4.81,2.87l.57,1.14Zm-3.12-11.68c-2-.18-4.43-1.27-4.88-3.28s1.26-3.35,3-3.85a1.85,1.85,0,0,1,1.48.12c.89.52,1.35,2,1.64,3.17l.06.25c.19,1,.28,2.58-.48,3.31C244.37,205.36,244.37,205.36,243.85,205.32Zm1.6,10.05c-.88.12-3.83.25-4.28-2.38-.35-2,1.43-4,3.26-4.92.44-.22.44-.22.87,0,1,.38,1.52,1.88,1.72,2.87,0,.08,0,.17,0,.24.19,1.23.34,2.74-.29,3.57A1.82,1.82,0,0,1,245.45,215.37Z" style="fill:#263238"></path><path d="M245.5,215.72c-2,.26-4.25-.33-4.67-2.67s1.47-4.25,3.42-5.27c.57-.3.59-.32,1.18-.09,1.2.47,1.8,2.28,2,3.39C247.74,213.23,247.77,215.43,245.5,215.72Z" style="fill:#407BFF"></path><path d="M241.91,197.86c-2,.55-3.79,2-3.27,4.26s3,3.36,5.18,3.54c.64.06.67.07,1.12-.37.93-.9.79-2.8.52-3.89C244.94,199.28,244.11,197.24,241.91,197.86Z" style="fill:#407BFF"></path><path d="M246.08,216.17c-1.42-5.7-3.19-12-3.68-12.54a13.66,13.66,0,0,0-2.52-.76l.14-.66a13.44,13.44,0,0,1,2.75.85c.75.43,2.8,8.3,4,12.95Z" style="fill:#263238"></path><path d="M245.5,215.72c-2,.26-4.25-.33-4.67-2.67s1.47-4.25,3.42-5.27c.57-.3.59-.32,1.18-.09,1.2.47,1.8,2.28,2,3.39C247.74,213.23,247.77,215.43,245.5,215.72Z" style="fill:#fff;opacity:0.4"></path><path d="M241.91,197.86c-2,.55-3.79,2-3.27,4.26s3,3.36,5.18,3.54c.64.06.67.07,1.12-.37.93-.9.79-2.8.52-3.89C244.94,199.28,244.11,197.24,241.91,197.86Z" style="fill:#fff;opacity:0.4"></path><path d="M288,197.52a.35.35,0,0,1-.32-.22c-.39-.92-9.45-22.81,2.84-28.36a5.12,5.12,0,0,1,4.62.1c7,3.54,10.81,21.68,11,22.45a.34.34,0,0,1-.26.41.35.35,0,0,1-.42-.26c0-.19-3.94-18.59-10.61-22a4.39,4.39,0,0,0-4-.08c-11.67,5.27-2.57,27.23-2.48,27.45a.34.34,0,0,1-.18.46A.35.35,0,0,1,288,197.52Z" style="fill:#263238"></path><g style="opacity:0.7000000000000001"><path d="M288,197.52a.35.35,0,0,1-.32-.22c-.39-.92-9.45-22.81,2.84-28.36a5.12,5.12,0,0,1,4.62.1c7,3.54,10.81,21.68,11,22.45a.34.34,0,0,1-.26.41.35.35,0,0,1-.42-.26c0-.19-3.94-18.59-10.61-22a4.39,4.39,0,0,0-4-.08c-11.67,5.27-2.57,27.23-2.48,27.45a.34.34,0,0,1-.18.46A.35.35,0,0,1,288,197.52Z" style="fill:#fff"></path></g><polygon points="281.34 197.15 290.87 243.08 301.06 251.31 336.65 239.44 319.24 188.81 312.67 187.86 310.64 185.92 281.34 197.15" style="fill:#407BFF"></polygon><polygon points="281.34 197.15 290.87 243.08 301.06 251.31 336.65 239.44 319.24 188.81 290.82 201.37 288.84 198.3 281.34 197.15" style="fill:#fff;opacity:0.2"></polygon><polygon points="290.81 201.37 288.84 198.3 281.34 197.15 310.63 185.92 312.67 187.86 319.23 188.81 290.81 201.37" style="fill:#fff;opacity:0.1"></polygon><polygon points="290.82 201.37 301.06 251.31 336.65 239.44 319.24 188.81 290.82 201.37" style="fill:#fff;opacity:0.2"></polygon><polygon points="288.84 198.3 295.47 240.51 290.87 243.08 301.06 251.31 296.37 240.75 288.84 198.3" style="fill:#fff;opacity:0.1"></polygon><path d="M313.76,194.24a.82.82,0,0,0-.33-.23c-1.3-4-9.74-28.17-21.92-25.48a5.67,5.67,0,0,0-4.27,3.39c-3.42,8,7.45,26.64,8.85,29a.72.72,0,0,0,.06.78.7.7,0,0,0,1,.13.71.71,0,0,0,.14-1,.69.69,0,0,0-.58-.27c-1.28-2.16-12.07-20.76-8.82-28.37a5,5,0,0,1,3.78-3c11.37-2.5,19.73,20.92,21.08,25a.7.7,0,0,0-.11.95.73.73,0,0,0,1,.14A.72.72,0,0,0,313.76,194.24Z" style="fill:#263238"></path><path d="M313.76,194.24a.82.82,0,0,0-.33-.23c-1.3-4-9.74-28.17-21.92-25.48a5.67,5.67,0,0,0-4.27,3.39c-3.42,8,7.45,26.64,8.85,29a.72.72,0,0,0,.06.78.7.7,0,0,0,1,.13.71.71,0,0,0,.14-1,.69.69,0,0,0-.58-.27c-1.28-2.16-12.07-20.76-8.82-28.37a5,5,0,0,1,3.78-3c11.37-2.5,19.73,20.92,21.08,25a.7.7,0,0,0-.11.95.73.73,0,0,0,1,.14A.72.72,0,0,0,313.76,194.24Z" style="fill:#fff;opacity:0.8"></path><polygon points="301.06 168.16 293.52 165.81 289.24 172.54 297.42 176.48 301.06 168.16" style="fill:#e4897b"></polygon><path d="M237.41,221.79,230,223.9l-1.54,4.89c.71,4,8.34,2.27,8.34,2.27l1.56,1a2.12,2.12,0,0,0,3.21-1.42l.81-4.62a2.12,2.12,0,0,0-.79-2l-2.33-1.82A2.11,2.11,0,0,0,237.41,221.79Z" style="fill:#e4897b"></path><path d="M201.3,213.25c-2.59,7.09-4.33,13.28-4,15.4.9,5.9,33.21,3.22,33.21,3.22v-9l-18.86-3.8Z" style="fill:#407BFF"></path><path d="M195.64,235.29a.4.4,0,0,1-.15,0,.34.34,0,0,1-.16-.46c2.64-5.72,8.51-15.37,18-15.71a.36.36,0,0,1,.36.34.35.35,0,0,1-.33.36c-9.15.32-14.85,9.72-17.43,15.3A.35.35,0,0,1,195.64,235.29Z" style="fill:#407BFF"></path><g style="opacity:0.6000000000000001"><path d="M195.64,235.29a.4.4,0,0,1-.15,0,.34.34,0,0,1-.16-.46c2.64-5.72,8.51-15.37,18-15.71a.36.36,0,0,1,.36.34.35.35,0,0,1-.33.36c-9.15.32-14.85,9.72-17.43,15.3A.35.35,0,0,1,195.64,235.29Z" style="fill:#fff"></path></g><path d="M199.79,239.22h-.07a.36.36,0,0,1-.28-.41c1.54-7.7,4.41-17.4,9.34-19.9a5.76,5.76,0,0,1,5.24,0,.35.35,0,1,1-.29.63,5,5,0,0,0-4.63,0c-4.68,2.37-7.47,11.87-9,19.41A.35.35,0,0,1,199.79,239.22Z" style="fill:#407BFF"></path><g style="opacity:0.7000000000000001"><path d="M199.79,239.22h-.07a.36.36,0,0,1-.28-.41c1.54-7.7,4.41-17.4,9.34-19.9a5.76,5.76,0,0,1,5.24,0,.35.35,0,1,1-.29.63,5,5,0,0,0-4.63,0c-4.68,2.37-7.47,11.87-9,19.41A.35.35,0,0,1,199.79,239.22Z" style="fill:#fff"></path></g><path d="M202.91,237.72h0a.34.34,0,0,1-.31-.37c.52-5.63,2.66-15.5,11.2-18.41a.33.33,0,0,1,.43.21.34.34,0,0,1-.21.43c-7.77,2.64-10.13,11.16-10.75,17.84A.33.33,0,0,1,202.91,237.72Z" style="fill:#263238"></path><path d="M209.43,249.94a.33.33,0,0,1-.33-.27c-.18-.92-4.25-22.52,1.87-28.95A5.84,5.84,0,0,1,216.3,219a.35.35,0,0,1,.29.38.35.35,0,0,1-.39.29,5.14,5.14,0,0,0-4.74,1.51c-5.89,6.19-1.74,28.14-1.7,28.36a.35.35,0,0,1-.27.4Z" style="fill:#263238"></path></g></svg>
